<svg xmlns="http://www.w3.org/2000/svg" xmlns:xlink="http://www.w3.org/1999/xlink" width="707pt" height="632pt" viewBox="0 0 707 632"><g id="graph0" class="graph" transform="scale(1 1) rotate(0) translate(4 628)"><title>pipeline</title><polygon fill="#fff" stroke="transparent" points="-4 4 -4 -628 703 -628 703 4 -4 4"/><g id="node1" class="node"><title>application</title><polygon fill="#fdd" stroke="#000" points="577 -624 511 -624 511 -588 577 -588 577 -624"/><text x="544" y="-603.8" fill="#000" font-family="Bitstream Vera Sans" font-size="9" text-anchor="middle">application</text></g><g id="node3" class="node"><title>bus</title><g id="a_node3"><a target="_top" xlink:href="GstBus.html" xlink:title="bus"><polygon fill="#eee" stroke="#000" points="122 -464 68 -464 68 -428 122 -428 122 -464"/><text x="95" y="-443.8" fill="#000" font-family="Bitstream Vera Sans" font-size="9" text-anchor="middle">bus</text></a></g></g><g id="edge24" class="edge"><title>application-&gt;bus</title><path fill="none" stroke="#000" d="M510.9115,-603.0792C430.1757,-595.561 225.2233,-574.007 164,-544 132.3738,-528.4992 123.8974,-520.3344 106,-490 103.0991,-485.0833 100.9591,-479.4225 99.3816,-473.8334"/><polygon fill="#000" stroke="#000" points="102.776 -472.977 97.107 -464.027 95.957 -474.559 102.776 -472.977"/><text x="180" y="-524.4" fill="#000" font-family="Bitstream Vera Sans" font-size="7" text-anchor="middle">listen on</text></g><g id="node9" class="node"><title>event</title><g id="a_node9"><a target="_top" xlink:href="gstreamer-GstEvent.html" xlink:title="event"><polygon fill="#dfd" stroke="#000" points="585 -304 531 -304 531 -268 585 -268 585 -304"/><text x="558" y="-283.8" fill="#000" font-family="Bitstream Vera Sans" font-size="9" text-anchor="middle">event</text></a></g></g><g id="edge26" class="edge"><title>application-&gt;event</title><path fill="none" stroke="#000" d="M577.281,-590.2893C600.3723,-576.8307 627,-555.0196 627,-526 627,-526 627,-526 627,-366 627,-345.4784 625.4135,-338.3413 613,-322 607.7902,-315.1417 600.8722,-309.1985 593.7059,-304.2267"/><polygon fill="#000" stroke="#000" points="595.579 -301.27 585.267 -298.84 591.813 -307.171 595.579 -301.27"/><text x="636" y="-444.4" fill="#000" font-family="Bitstream Vera Sans" font-size="7" text-anchor="middle">send</text></g><g id="node13" class="node"><title>pipeline</title><g id="a_node13"><a target="_top" xlink:href="GstPipeline.html" xlink:title="pipeline"><polygon fill="#ccf" stroke="#000" points="259 -544 205 -544 205 -508 259 -508 259 -544"/><text x="232" y="-523.8" fill="#000" font-family="Bitstream Vera Sans" font-size="9" text-anchor="middle">pipeline</text></a></g></g><g id="edge23" class="edge"><title>application-&gt;pipeline</title><path fill="none" stroke="#000" d="M510.9059,-597.5143C452.3458,-582.4989 330.8592,-551.3485 269.3763,-535.5837"/><polygon fill="#000" stroke="#000" points="269.888 -532.102 259.332 -533.008 268.149 -538.882 269.888 -532.102"/><text x="404.5" y="-564.4" fill="#000" font-family="Bitstream Vera Sans" font-size="7" text-anchor="middle">has</text></g><g id="node16" class="node"><title>query</title><g id="a_node16"><a target="_top" xlink:href="gstreamer-GstQuery.html" xlink:title="query"><polygon fill="#dfd" stroke="#000" points="677 -304 623 -304 623 -268 677 -268 677 -304"/><text x="650" y="-283.8" fill="#000" font-family="Bitstream Vera Sans" font-size="9" text-anchor="middle">query</text></a></g></g><g id="edge25" class="edge"><title>application-&gt;query</title><path fill="none" stroke="#000" d="M577.1639,-601.3855C617.7094,-593.6598 681,-573.9247 681,-526 681,-526 681,-526 681,-366 681,-347.6719 673.8382,-328.4806 666.3992,-313.4901"/><polygon fill="#000" stroke="#000" points="669.309 -311.505 661.543 -304.297 663.119 -314.774 669.309 -311.505"/><text x="690" y="-444.4" fill="#000" font-family="Bitstream Vera Sans" font-size="7" text-anchor="middle">send</text></g><g id="node2" class="node"><title>bin</title><g id="a_node2"><a target="_top" xlink:href="GstBin.html" xlink:title="bin"><polygon fill="#ccf" stroke="#000" points="343 -464 289 -464 289 -428 343 -428 343 -464"/><text x="316" y="-443.8" fill="#000" font-family="Bitstream Vera Sans" font-size="9" text-anchor="middle">bin</text></a></g></g><g id="node7" class="node"><title>element</title><g id="a_node7"><a target="_top" xlink:href="GstElement.html" xlink:title="element"><polygon fill="#ccf" stroke="#000" points="379 -384 325 -384 325 -348 379 -348 379 -384"/><text x="352" y="-363.8" fill="#000" font-family="Bitstream Vera Sans" font-size="9" text-anchor="middle">element</text></a></g></g><g id="edge1" class="edge"><title>bin-&gt;element</title><path fill="none" stroke="#000" d="M313.4728,-427.8198C313.0652,-419.637 313.6319,-410.0331 317,-402 318.4683,-398.498 320.4504,-395.1455 322.7289,-391.9929"/><polygon fill="#000" stroke="#000" points="325.562 -394.062 329.303 -384.149 320.197 -389.565 325.562 -394.062"/><text x="323.5" y="-404.4" fill="#000" font-family="Bitstream Vera Sans" font-size="7" text-anchor="middle">is-a</text></g><g id="edge12" class="edge"><title>bin-&gt;element</title><path fill="none" stroke="#000" d="M324.169,-427.8468C328.7718,-417.6183 334.6118,-404.6405 339.7523,-393.217"/><polygon fill="#000" stroke="#000" points="342.951 -394.637 343.863 -384.081 336.568 -391.764 342.951 -394.637"/><text x="346" y="-404.4" fill="#000" font-family="Bitstream Vera Sans" font-size="7" text-anchor="middle">has n</text></g><g id="node10" class="node"><title>message</title><g id="a_node10"><a target="_top" xlink:href="gstreamer-GstMessage.html" xlink:title="message"><polygon fill="#dfd" stroke="#000" points="128 -304 72 -304 72 -268 128 -268 128 -304"/><text x="100" y="-283.8" fill="#000" font-family="Bitstream Vera Sans" font-size="9" text-anchor="middle">message</text></a></g></g><g id="edge19" class="edge"><title>bus-&gt;message</title><path fill="none" stroke="#000" d="M95.5638,-427.957C96.4266,-400.3487 98.082,-347.3746 99.1086,-314.5255"/><polygon fill="#000" stroke="#000" points="102.616 -314.327 99.43 -304.223 95.62 -314.108 102.616 -314.327"/><text x="111.5" y="-364.4" fill="#000" font-family="Bitstream Vera Sans" font-size="7" text-anchor="middle">receive</text></g><g id="node4" class="node"><title>buffer</title><g id="a_node4"><a target="_top" xlink:href="gstreamer-GstBuffer.html" xlink:title="buffer"><polygon fill="#dfd" stroke="#000" points="521 -250 467 -250 467 -214 521 -214 521 -250"/><text x="494" y="-229.8" fill="#000" font-family="Bitstream Vera Sans" font-size="9" text-anchor="middle">buffer</text></a></g></g><g id="node5" class="node"><title>caps</title><g id="a_node5"><a target="_top" xlink:href="gstreamer-GstCaps.html" xlink:title="caps"><polygon fill="#eee" stroke="#000" points="472 -116 418 -116 418 -80 472 -80 472 -116"/><text x="445" y="-95.8" fill="#000" font-family="Bitstream Vera Sans" font-size="9" text-anchor="middle">caps</text></a></g></g><g id="edge10" class="edge"><title>buffer-&gt;caps</title><path fill="none" stroke="#000" d="M487.8971,-213.8918C482.9336,-199.2961 475.6823,-178.2673 469,-160 464.7467,-148.3727 463.4659,-145.5473 459,-134 457.9568,-131.3027 456.8678,-128.4926 455.7781,-125.6842"/><polygon fill="#000" stroke="#000" points="459.019 -124.362 452.135 -116.309 452.495 -126.898 459.019 -124.362"/><text x="492" y="-176.4" fill="#000" font-family="Bitstream Vera Sans" font-size="7" text-anchor="middle">has n</text></g><g id="node18" class="node"><title>structure</title><g id="a_node18"><a target="_top" xlink:href="gstreamer-GstStructure.html" xlink:title="structure"><polygon fill="#eee" stroke="#000" points="474.5 -36 415.5 -36 415.5 0 474.5 0 474.5 -36"/><text x="445" y="-15.8" fill="#000" font-family="Bitstream Vera Sans" font-size="9" text-anchor="middle">structure</text></a></g></g><g id="edge11" class="edge"><title>caps-&gt;structure</title><path fill="none" stroke="#000" d="M445,-79.8468C445,-69.9251 445,-57.4167 445,-46.2492"/><polygon fill="#000" stroke="#000" points="448.5 -46.081 445 -36.081 441.5 -46.081 448.5 -46.081"/><text x="455" y="-56.4" fill="#000" font-family="Bitstream Vera Sans" font-size="7" text-anchor="middle">has n</text></g><g id="node6" class="node"><title>clock</title><g id="a_node6"><a target="_top" xlink:href="GstClock.html" xlink:title="clock"><polygon fill="#eee" stroke="#000" points="200 -304 146 -304 146 -268 200 -268 200 -304"/><text x="173" y="-283.8" fill="#000" font-family="Bitstream Vera Sans" font-size="9" text-anchor="middle">clock</text></a></g></g><g id="edge17" class="edge"><title>element-&gt;buffer</title><path fill="none" stroke="#000" d="M379.0052,-348.1841C387.6581,-342.4256 397.2602,-335.9827 406,-330 422.585,-318.647 428.7615,-318.1851 443,-304 456.442,-290.6085 468.8159,-273.3197 478.0084,-259.0402"/><polygon fill="#000" stroke="#000" points="481.227 -260.495 483.569 -250.162 475.295 -256.779 481.227 -260.495"/><text x="446" y="-324.4" fill="#000" font-family="Bitstream Vera Sans" font-size="7" text-anchor="middle">send &amp; receive</text></g><g id="edge7" class="edge"><title>element-&gt;clock</title><path fill="none" stroke="#000" d="M324.9778,-361.1851C299.2847,-355.9049 260.0596,-345.9868 229,-330 218.9195,-324.8114 208.8758,-317.6948 200.1358,-310.6969"/><polygon fill="#000" stroke="#000" points="202.123 -307.797 192.197 -304.091 197.645 -313.178 202.123 -307.797"/><text x="251.5" y="-324.4" fill="#000" font-family="Bitstream Vera Sans" font-size="7" text-anchor="middle">may provide</text></g><g id="node8" class="node"><title>element_factory</title><g id="a_node8"><a target="_top" xlink:href="GstElementFactory.html" xlink:title="element factory"><polygon fill="#eee" stroke="#000" points="306 -304 218 -304 218 -268 306 -268 306 -304"/><text x="262" y="-283.8" fill="#000" font-family="Bitstream Vera Sans" font-size="9" text-anchor="middle">element factory</text></a></g></g><g id="edge14" class="edge"><title>element-&gt;element_factory</title><path fill="none" stroke="#000" d="M324.8244,-356.6294C310.9201,-350.7366 294.5406,-341.9588 283,-330 278.4484,-325.2835 274.729,-319.3944 271.7547,-313.4736"/><polygon fill="#000" stroke="#000" points="274.941 -312.025 267.682 -304.308 268.544 -314.867 274.941 -312.025"/><text x="310.5" y="-324.4" fill="#000" font-family="Bitstream Vera Sans" font-size="7" text-anchor="middle">is created from</text></g><g id="edge16" class="edge"><title>element-&gt;event</title><path fill="none" stroke="#000" d="M379.0347,-360.7461C406.0174,-355.003 448.3405,-344.6282 483,-330 496.4301,-324.3318 510.3994,-316.6794 522.5904,-309.3462"/><polygon fill="#000" stroke="#000" points="524.439 -312.318 531.12 -304.096 520.769 -306.357 524.439 -312.318"/><text x="526" y="-324.4" fill="#000" font-family="Bitstream Vera Sans" font-size="7" text-anchor="middle">send &amp; receive</text></g><g id="edge18" class="edge"><title>element-&gt;message</title><path fill="none" stroke="#000" d="M324.9822,-361.5785C293.1497,-355.9741 238.9085,-345.1811 194,-330 170.198,-321.9538 163.449,-316.9228 137.4211,-304.2336"/><polygon fill="#000" stroke="#000" points="138.777 -301.002 128.247 -299.831 135.748 -307.313 138.777 -301.002"/><text x="203" y="-324.4" fill="#000" font-family="Bitstream Vera Sans" font-size="7" text-anchor="middle">send</text></g><g id="node11" class="node"><title>pad</title><g id="a_node11"><a target="_top" xlink:href="GstPad.html" xlink:title="pad"><polygon fill="#ccf" stroke="#000" points="434 -304 380 -304 380 -268 434 -268 434 -304"/><text x="407" y="-283.8" fill="#000" font-family="Bitstream Vera Sans" font-size="9" text-anchor="middle">pad</text></a></g></g><g id="edge6" class="edge"><title>element-&gt;pad</title><path fill="none" stroke="#000" d="M364.4804,-347.8468C371.6531,-337.4137 380.7923,-324.1203 388.7582,-312.5335"/><polygon fill="#000" stroke="#000" points="391.788 -314.305 394.569 -304.081 386.02 -310.339 391.788 -314.305"/><text x="392" y="-324.4" fill="#000" font-family="Bitstream Vera Sans" font-size="7" text-anchor="middle">has n</text></g><g id="node12" class="node"><title>pad_template</title><g id="a_node12"><a target="_top" xlink:href="GstPadTemplate.html" xlink:title="pad template"><polygon fill="#eee" stroke="#000" points="408.5 -196 331.5 -196 331.5 -160 408.5 -160 408.5 -196"/><text x="370" y="-175.8" fill="#000" font-family="Bitstream Vera Sans" font-size="9" text-anchor="middle">pad template</text></a></g></g><g id="edge5" class="edge"><title>element-&gt;pad_template</title><path fill="none" stroke="#000" d="M351.6297,-347.8244C351.397,-335.4673 351.1189,-318.748 351,-304 350.871,-288.0005 349.3386,-283.9135 351,-268 353.1835,-247.0865 358.1473,-223.877 362.4537,-206.266"/><polygon fill="#000" stroke="#000" points="365.967 -206.647 365.019 -196.095 359.18 -204.935 365.967 -206.647"/><text x="361" y="-284.4" fill="#000" font-family="Bitstream Vera Sans" font-size="7" text-anchor="middle">has n</text></g><g id="edge15" class="edge"><title>element-&gt;query</title><path fill="none" stroke="#000" d="M379.0863,-363.5768C418.8478,-359.5008 495.0155,-349.7102 557,-330 576.3889,-323.8346 596.9357,-314.4447 613.7714,-305.9205"/><polygon fill="#000" stroke="#000" points="615.435 -309 622.712 -301.3 612.221 -302.782 615.435 -309"/><text x="594" y="-324.4" fill="#000" font-family="Bitstream Vera Sans" font-size="7" text-anchor="middle">answers</text></g><g id="node15" class="node"><title>plugin_feature</title><g id="a_node15"><a target="_top" xlink:href="GstPluginFeature.html" xlink:title="plugin feature"><polygon fill="#eee" stroke="#000" points="161 -196 81 -196 81 -160 161 -160 161 -196"/><text x="121" y="-175.8" fill="#000" font-family="Bitstream Vera Sans" font-size="9" text-anchor="middle">plugin feature</text></a></g></g><g id="edge22" class="edge"><title>element_factory-&gt;plugin_feature</title><path fill="none" stroke="#000" d="M238.3998,-267.9232C214.9138,-249.9339 178.719,-222.2103 152.7282,-202.3024"/><polygon fill="#000" stroke="#000" points="154.744 -199.438 144.677 -196.136 150.488 -204.995 154.744 -199.438"/><text x="219.5" y="-230.4" fill="#000" font-family="Bitstream Vera Sans" font-size="7" text-anchor="middle">is-a</text></g><g id="edge8" class="edge"><title>pad-&gt;caps</title><path fill="none" stroke="#000" d="M421.5944,-267.8888C425.2714,-262.4333 428.7961,-256.2319 431,-250 438.8006,-227.9426 442.5008,-164.0023 444.0459,-126.4479"/><polygon fill="#000" stroke="#000" points="447.555 -126.291 444.442 -116.164 440.56 -126.021 447.555 -126.291"/><text x="453" y="-176.4" fill="#000" font-family="Bitstream Vera Sans" font-size="7" text-anchor="middle">has n</text></g><g id="edge13" class="edge"><title>pad-&gt;pad_template</title><path fill="none" stroke="#000" d="M387.4506,-267.737C382.9375,-262.4616 378.679,-256.3893 376,-250 370.2976,-236.3999 368.5674,-220.1056 368.3637,-206.4602"/><polygon fill="#000" stroke="#000" points="371.866 -206.226 368.481 -196.187 364.867 -206.146 371.866 -206.226"/><text x="403.5" y="-230.4" fill="#000" font-family="Bitstream Vera Sans" font-size="7" text-anchor="middle">is created from</text></g><g id="edge9" class="edge"><title>pad_template-&gt;caps</title><path fill="none" stroke="#000" d="M386.7291,-159.9921C394.1513,-152.0167 402.9991,-142.5287 411,-134 414.1284,-130.6653 417.4244,-127.1622 420.6835,-123.7048"/><polygon fill="#000" stroke="#000" points="423.361 -125.967 427.68 -116.292 418.271 -121.162 423.361 -125.967"/><text x="421" y="-136.4" fill="#000" font-family="Bitstream Vera Sans" font-size="7" text-anchor="middle">has n</text></g><g id="edge2" class="edge"><title>pipeline-&gt;bin</title><path fill="none" stroke="#000" d="M251.0609,-507.8468C262.4452,-497.0045 277.0731,-483.0732 289.5625,-471.1785"/><polygon fill="#000" stroke="#000" points="292.187 -473.512 297.014 -464.081 287.359 -468.443 292.187 -473.512"/><text x="283.5" y="-484.4" fill="#000" font-family="Bitstream Vera Sans" font-size="7" text-anchor="middle">is-a</text></g><g id="edge3" class="edge"><title>pipeline-&gt;bus</title><path fill="none" stroke="#000" d="M204.6065,-523.7303C178.9936,-520.2926 141.0367,-511.6598 116,-490 110.959,-485.6389 107.0322,-479.7973 104.0111,-473.7986"/><polygon fill="#000" stroke="#000" points="107.148 -472.234 99.979 -464.433 100.719 -475.002 107.148 -472.234"/><text x="126" y="-484.4" fill="#000" font-family="Bitstream Vera Sans" font-size="7" text-anchor="middle">has 1</text></g><g id="edge4" class="edge"><title>pipeline-&gt;clock</title><path fill="none" stroke="#000" d="M224.1619,-507.8066C209.9486,-473.7131 180.4285,-397.5454 170,-330 169.2231,-324.968 169.0522,-319.5812 169.225,-314.3635"/><polygon fill="#000" stroke="#000" points="172.74 -314.287 169.978 -304.059 165.758 -313.777 172.74 -314.287"/><text x="199" y="-404.4" fill="#000" font-family="Bitstream Vera Sans" font-size="7" text-anchor="middle">has 1</text></g><g id="node14" class="node"><title>plugin</title><g id="a_node14"><a target="_top" xlink:href="GstPlugin.html" xlink:title="plugin"><polygon fill="#eee" stroke="#000" points="54 -304 0 -304 0 -268 54 -268 54 -304"/><text x="27" y="-283.8" fill="#000" font-family="Bitstream Vera Sans" font-size="9" text-anchor="middle">plugin</text></a></g></g><g id="edge21" class="edge"><title>plugin-&gt;plugin_feature</title><path fill="none" stroke="#000" d="M42.9458,-267.6793C58.2302,-250.1185 81.4452,-223.4459 98.5869,-203.7512"/><polygon fill="#000" stroke="#000" points="101.365 -205.891 105.29 -196.05 96.084 -201.295 101.365 -205.891"/><text x="98" y="-230.4" fill="#000" font-family="Bitstream Vera Sans" font-size="7" text-anchor="middle">has n</text></g><g id="node17" class="node"><title>registry</title><g id="a_node17"><a target="_top" xlink:href="GstRegistry.html" xlink:title="registry"><polygon fill="#eee" stroke="#000" points="54 -384 0 -384 0 -348 54 -348 54 -384"/><text x="27" y="-363.8" fill="#000" font-family="Bitstream Vera Sans" font-size="9" text-anchor="middle">registry</text></a></g></g><g id="edge20" class="edge"><title>registry-&gt;plugin</title><path fill="none" stroke="#000" d="M27,-347.8468C27,-337.9251 27,-325.4167 27,-314.2492"/><polygon fill="#000" stroke="#000" points="30.5 -314.081 27 -304.081 23.5 -314.081 30.5 -314.081"/><text x="37" y="-324.4" fill="#000" font-family="Bitstream Vera Sans" font-size="7" text-anchor="middle">has n</text></g></g></svg>